<svg width="57" height="57" viewBox="0 0 57 57" fill="none" xmlns="http://www.w3.org/2000/svg">
<path d="M46 0H11C4.92487 0 0 4.92487 0 11V46C0 52.0751 4.92487 57 11 57H46C52.0751 57 57 52.0751 57 46V11C57 4.92487 52.0751 0 46 0Z" fill="#15D088"/>
<mask id="mask0_2218_9" style="mask-type:luminance" maskUnits="userSpaceOnUse" x="9" y="10" width="40" height="37">
<path d="M48.966 10H9V46.647H48.966V10Z" fill="white"/>
</mask>
<g mask="url(#mask0_2218_9)">
<mask id="mask1_2218_9" style="mask-type:luminance" maskUnits="userSpaceOnUse" x="9" y="10" width="40" height="37">
<path d="M48.966 10H9V46.647H48.966V10Z" fill="white"/>
</mask>
<g mask="url(#mask1_2218_9)">
<path d="M28.744 10.3161C27.597 10.1936 26.4421 10.4587 25.4634 11.0691C24.4846 11.6795 23.7385 12.6001 23.344 13.6841C22.9517 14.8064 22.8904 16.0178 23.1674 17.174C23.4443 18.3301 24.0478 19.3823 24.906 20.2051C25.7573 20.9602 26.8145 21.4445 27.9424 21.5959C29.0702 21.7473 30.2177 21.559 31.238 21.0551C32.1031 20.6099 32.8484 19.963 33.4109 19.1692C33.9734 18.3754 34.3367 17.4578 34.47 16.4941C34.6019 15.5215 34.4655 14.5313 34.0757 13.6306C33.6859 12.7298 33.0573 11.9527 32.258 11.3831C31.1734 10.7875 29.9767 10.4242 28.744 10.3161Z" fill="white"/>
<path d="M28.723 21.915C27.2509 21.9244 25.8276 21.3879 24.728 20.409C23.8295 19.5501 23.1975 18.4504 22.9077 17.2416C22.6179 16.0327 22.6826 14.766 23.094 13.593C23.5151 12.4548 24.3031 11.4891 25.3337 10.8481C26.3643 10.2072 27.5789 9.92745 28.786 10.053C30.058 10.1643 31.2924 10.5418 32.409 11.161C33.2497 11.7597 33.9112 12.5762 34.3224 13.5227C34.7337 14.4693 34.8791 15.51 34.743 16.533C34.6007 17.5395 34.2197 18.4973 33.6319 19.3265C33.0441 20.1558 32.2665 20.8324 31.364 21.3C30.5437 21.7071 29.6398 21.9173 28.724 21.914M28.098 10.54C27.1116 10.576 26.1579 10.9032 25.3571 11.4803C24.5563 12.0574 23.9442 12.8587 23.598 13.783C23.2222 14.8546 23.163 16.0118 23.4276 17.1161C23.6922 18.2204 24.2693 19.2251 25.09 20.01C25.9021 20.726 26.9083 21.185 27.9813 21.329C29.0543 21.473 30.1459 21.2955 31.118 20.819C31.9421 20.392 32.652 19.7741 33.1887 19.0169C33.7253 18.2596 34.0731 17.385 34.203 16.466C34.328 15.5442 34.1995 14.6057 33.8313 13.7513C33.4631 12.897 32.869 12.1591 32.113 11.617C31.0594 11.0416 29.898 10.6909 28.702 10.587C28.5035 10.5559 28.3029 10.5401 28.102 10.54" fill="black"/>
<path d="M42.923 34.767C41.776 34.6445 40.6211 34.9096 39.6424 35.52C38.6636 36.1305 37.9175 37.0511 37.523 38.135C37.1318 39.2575 37.0715 40.4688 37.3493 41.6246C37.6271 42.7804 38.2314 43.832 39.09 44.654C39.9413 45.4092 40.9985 45.8934 42.1264 46.0448C43.2542 46.1962 44.4017 46.0079 45.422 45.504C46.2871 45.0588 47.0324 44.412 47.5949 43.6181C48.1574 42.8243 48.5207 41.9068 48.654 40.943C48.7859 39.9704 48.6496 38.9802 48.2597 38.0795C47.8699 37.1787 47.2413 36.4016 46.442 35.832C45.3562 35.2357 44.1581 34.872 42.924 34.764" fill="white"/>
<path d="M42.902 46.361C41.4299 46.3704 40.0066 45.8338 38.907 44.855C38.0086 43.9958 37.3767 42.8959 37.0871 41.6869C36.7975 40.4779 36.8624 39.2111 37.274 38.038C37.6952 36.9001 38.4831 35.9346 39.5134 35.2937C40.5438 34.6528 41.7581 34.3729 42.965 34.498C44.237 34.6093 45.4714 34.9868 46.588 35.606C47.4287 36.2047 48.0902 37.0212 48.5014 37.9677C48.9127 38.9143 49.0581 39.955 48.922 40.978C48.7798 41.9847 48.3989 42.9427 47.8111 43.7721C47.2233 44.6015 46.4456 45.2784 45.543 45.746C44.7228 46.1533 43.8188 46.3636 42.903 46.36M42.278 34.985C41.2916 35.0211 40.3379 35.3482 39.5371 35.9253C38.7363 36.5024 38.1242 37.3037 37.778 38.228C37.402 39.2995 37.3427 40.4566 37.6071 41.561C37.8716 42.6653 38.4485 43.67 39.269 44.455C40.0811 45.171 41.0873 45.63 42.1603 45.774C43.2333 45.918 44.3249 45.7405 45.297 45.264C46.1211 44.837 46.831 44.2191 47.3677 43.4619C47.9044 42.7046 48.2521 41.83 48.382 40.911C48.5071 39.9892 48.3787 39.0506 48.0105 38.1963C47.6422 37.3419 47.0481 36.6041 46.292 36.062C45.238 35.4886 44.0766 35.1399 42.881 35.038C42.6825 35.0069 42.4819 34.9912 42.281 34.991" fill="black"/>
<path d="M15.015 35.052C13.868 34.9295 12.7131 35.1946 11.7344 35.8051C10.7556 36.4155 10.0095 37.3361 9.615 38.42C9.22253 39.5425 9.16111 40.7541 9.43806 41.9105C9.71501 43.0668 10.3186 44.1192 11.177 44.942C12.0283 45.6972 13.0855 46.1814 14.2134 46.3328C15.3412 46.4843 16.4887 46.296 17.509 45.792C18.3753 45.348 19.1221 44.7019 19.686 43.9084C20.2499 43.1149 20.6146 42.1972 20.749 41.233C20.8809 40.2604 20.7445 39.2703 20.3547 38.3695C19.9649 37.4688 19.3363 36.6916 18.537 36.122C17.4501 35.5245 16.2506 35.1601 15.015 35.052Z" fill="white"/>
<path d="M15 46.647C13.5262 46.6576 12.1008 46.121 11 45.141C10.1024 44.2814 9.47129 43.1815 9.18223 41.9728C8.89317 40.7641 8.95836 39.4977 9.37 38.325C9.79108 37.1869 10.5789 36.2213 11.6093 35.5804C12.6397 34.9395 13.854 34.6596 15.061 34.785C16.333 34.8964 17.5673 35.2739 18.684 35.893C19.5247 36.4916 20.1862 37.3081 20.5974 38.2547C21.0087 39.2012 21.1541 40.242 21.018 41.265C20.8758 42.2716 20.4949 43.2296 19.9071 44.0591C19.3193 44.8885 18.5416 45.5653 17.639 46.033C16.8191 46.4401 15.9154 46.6503 15 46.647ZM14.373 35.272C13.3869 35.3087 12.4336 35.6365 11.6334 36.2139C10.8332 36.7914 10.2217 37.5927 9.876 38.517C9.49992 39.5885 9.44053 40.7456 9.70496 41.8499C9.96938 42.9543 10.5464 43.959 11.367 44.744C12.179 45.46 13.1852 45.9191 14.2583 46.0631C15.3313 46.2071 16.4229 46.0296 17.395 45.553C18.2191 45.126 18.9291 44.5081 19.4658 43.7509C20.0025 42.9936 20.3502 42.119 20.48 41.2C20.6051 40.2781 20.4767 39.3396 20.1085 38.4852C19.7402 37.6309 19.1461 36.893 18.39 36.351C17.3358 35.7738 16.1733 35.4217 14.976 35.317C14.7775 35.2858 14.5769 35.2701 14.376 35.27" fill="black"/>
<path d="M17.076 33.5401C17.0285 33.54 16.9819 33.5275 16.9408 33.5036C16.8998 33.4798 16.8657 33.4456 16.8421 33.4045C16.8184 33.3633 16.8061 33.3166 16.8062 33.2691C16.8064 33.2217 16.8191 33.1751 16.843 33.1341L23.393 21.8701C23.4291 21.8081 23.4883 21.7631 23.5576 21.7448C23.6269 21.7265 23.7006 21.7365 23.7625 21.7726C23.8244 21.8086 23.8695 21.8678 23.8878 21.9371C23.9061 22.0064 23.8961 22.0801 23.86 22.1421L17.31 33.4061C17.2863 33.4471 17.2522 33.4812 17.2111 33.5049C17.17 33.5286 17.1234 33.5401 17.076 33.5401Z" fill="black"/>
<path d="M40.823 33.025C40.7822 33.0256 40.7419 33.0169 40.705 32.9996C40.6681 32.9822 40.6356 32.9568 40.61 32.925C38.068 29.661 35.601 26.271 33.276 22.85C33.2529 22.8208 33.2361 22.7872 33.2266 22.7512C33.2171 22.7151 33.2152 22.6776 33.221 22.6408C33.2267 22.604 33.24 22.5688 33.26 22.5374C33.28 22.506 33.3063 22.479 33.3372 22.4583C33.3682 22.4375 33.4031 22.4234 33.4397 22.4168C33.4763 22.4102 33.514 22.4112 33.5502 22.4198C33.5864 22.4284 33.6205 22.4444 33.6502 22.4669C33.68 22.4893 33.7047 22.5176 33.723 22.55C36.041 25.961 38.502 29.342 41.036 32.597C41.0671 32.6369 41.0864 32.6847 41.0916 32.7351C41.0968 32.7854 41.0879 32.8361 41.0657 32.8816C41.0435 32.927 41.0089 32.9653 40.966 32.9921C40.9231 33.0189 40.8736 33.0331 40.823 33.033" fill="black"/>
<path d="M22.325 42.763C22.2533 42.763 22.1845 42.7345 22.1337 42.6838C22.083 42.633 22.0545 42.5642 22.0545 42.4925C22.0545 42.4208 22.083 42.352 22.1337 42.3012C22.1845 42.2505 22.2533 42.222 22.325 42.222L34.905 42.167C34.9767 42.167 35.0455 42.1955 35.0963 42.2462C35.147 42.297 35.1755 42.3658 35.1755 42.4375C35.1755 42.5092 35.147 42.578 35.0963 42.6288C35.0455 42.6795 34.9767 42.708 34.905 42.708L22.325 42.763Z" fill="black"/>
<path d="M10.656 39.363C10.6394 39.363 10.6232 39.3585 10.609 39.35C10.5887 39.3374 10.5742 39.3173 10.5686 39.2941C10.563 39.2709 10.5667 39.2465 10.579 39.226C11.2709 38.1044 12.0624 37.0475 12.944 36.068C12.9519 36.0592 12.9615 36.052 12.9723 36.0469C12.983 36.0419 12.9946 36.0389 13.0064 36.0383C13.0182 36.0377 13.0301 36.0394 13.0413 36.0434C13.0524 36.0474 13.0627 36.0535 13.0715 36.0615C13.0803 36.0694 13.0874 36.079 13.0925 36.0897C13.0976 36.1004 13.1006 36.112 13.1012 36.1239C13.1018 36.1357 13.1 36.1476 13.0961 36.1587C13.0921 36.1699 13.0859 36.1802 13.078 36.189C12.2035 37.1604 11.4183 38.2086 10.732 39.321C10.7239 39.3342 10.7126 39.345 10.6991 39.3526C10.6856 39.3601 10.6704 39.364 10.655 39.364" fill="black"/>
<path d="M10.719 41.785C10.6996 41.7848 10.6807 41.7785 10.665 41.767C10.6463 41.7524 10.634 41.731 10.6308 41.7074C10.6277 41.6839 10.6338 41.6601 10.648 41.641L14.926 35.976C14.9405 35.9569 14.9619 35.9443 14.9856 35.941C15.0093 35.9378 15.0334 35.944 15.0525 35.9585C15.0716 35.9729 15.0842 35.9944 15.0874 36.0181C15.0907 36.0418 15.0845 36.0659 15.07 36.085L10.791 41.75C10.7826 41.7612 10.7717 41.7702 10.7592 41.7765C10.7468 41.7827 10.733 41.785 10.719 41.785Z" fill="black"/>
<path d="M11.526 43.5041C11.5073 43.5041 11.4891 43.4982 11.474 43.4871C11.4643 43.4803 11.4561 43.4717 11.4498 43.4617C11.4436 43.4517 11.4393 43.4406 11.4374 43.4289C11.4354 43.4173 11.4358 43.4054 11.4385 43.3939C11.4411 43.3824 11.4461 43.3716 11.453 43.3621L16.453 36.3881C16.4583 36.376 16.4663 36.3652 16.4763 36.3565C16.4862 36.3479 16.498 36.3415 16.5107 36.3379C16.5234 36.3343 16.5368 36.3335 16.5498 36.3356C16.5628 36.3378 16.5753 36.3428 16.5862 36.3502C16.5971 36.3577 16.6062 36.3675 16.6129 36.3789C16.6196 36.3902 16.6237 36.403 16.6249 36.4161C16.6261 36.4293 16.6245 36.4425 16.62 36.455C16.6155 36.4674 16.6083 36.4787 16.599 36.4881L11.599 43.4621C11.5908 43.4738 11.5799 43.4834 11.5672 43.49C11.5544 43.4966 11.5403 43.5001 11.526 43.5001" fill="black"/>
<path d="M12.865 45.051C12.8472 45.0511 12.8298 45.0459 12.815 45.036C12.805 45.0293 12.7965 45.0206 12.7899 45.0106C12.7833 45.0005 12.7788 44.9892 12.7767 44.9774C12.7745 44.9655 12.7748 44.9534 12.7774 44.9416C12.78 44.9299 12.785 44.9188 12.792 44.909L17.8 37.332C17.8133 37.3121 17.8339 37.2983 17.8573 37.2936C17.8808 37.2889 17.9051 37.2937 17.925 37.307C17.9449 37.3203 17.9587 37.3409 17.9634 37.3643C17.9681 37.3878 17.9633 37.4121 17.95 37.432L12.942 45.009C12.9338 45.0214 12.9227 45.0316 12.9096 45.0385C12.8965 45.0455 12.8818 45.0491 12.867 45.049" fill="black"/>
<path d="M14.938 45.144C14.9217 45.1441 14.9057 45.1397 14.8917 45.1313C14.8777 45.1229 14.8662 45.1109 14.8585 45.0965C14.8508 45.0822 14.8471 45.0659 14.8479 45.0497C14.8487 45.0334 14.8539 45.0176 14.863 45.004L19.008 38.677C19.0146 38.6671 19.023 38.6586 19.0329 38.6519C19.0427 38.6453 19.0538 38.6407 19.0655 38.6383C19.0771 38.6359 19.0891 38.6359 19.1008 38.6381C19.1125 38.6404 19.1236 38.645 19.1335 38.6515C19.1434 38.6581 19.1519 38.6666 19.1586 38.6764C19.1652 38.6863 19.1699 38.6974 19.1722 38.709C19.1746 38.7207 19.1747 38.7327 19.1724 38.7443C19.1701 38.756 19.1656 38.7671 19.159 38.777L15.014 45.105C15.0059 45.1175 14.9948 45.1279 14.9817 45.135C14.9686 45.1422 14.9539 45.146 14.939 45.146" fill="black"/>
<path d="M17.21 44.562C17.1918 44.562 17.174 44.5564 17.159 44.546C17.1394 44.5324 17.126 44.5117 17.1217 44.4882C17.1174 44.4648 17.1225 44.4406 17.136 44.421L19.697 40.702C19.7111 40.6842 19.7313 40.6724 19.7537 40.6689C19.776 40.6654 19.7989 40.6705 19.8177 40.6831C19.8365 40.6957 19.8499 40.715 19.8551 40.737C19.8604 40.7591 19.8571 40.7823 19.846 40.802L17.284 44.519C17.2757 44.531 17.2647 44.5408 17.2518 44.5476C17.2389 44.5544 17.2246 44.558 17.21 44.558" fill="black"/>
<g opacity="0.129">
<mask id="mask2_2218_9" style="mask-type:luminance" maskUnits="userSpaceOnUse" x="24" y="12" width="11" height="10">
<path d="M34.561 12.254H24.979V21.611H34.561V12.254Z" fill="white"/>
</mask>
<g mask="url(#mask2_2218_9)">
<path d="M34.506 15.698C34.572 15.26 34.671 14.117 34.172 13.957C34.136 13.735 34.089 13.496 34.023 13.218C33.9886 13.0184 33.9192 12.8265 33.818 12.651C33.8098 12.5801 33.7917 12.5108 33.764 12.445C33.723 12.3779 33.6633 12.3242 33.5922 12.2904C33.5212 12.2566 33.4418 12.2443 33.3638 12.2549C33.2859 12.2655 33.2127 12.2986 33.1532 12.3501C33.0938 12.4016 33.0506 12.4694 33.029 12.545C32.9688 12.8215 32.9661 13.1074 33.021 13.385C33.0424 13.5096 33.0871 13.6291 33.153 13.737C33.205 14.129 33.263 14.392 33.279 14.747C33.3223 15.6038 33.2459 16.4624 33.052 17.298L33.017 17.351C32.7334 17.7406 32.4129 18.1019 32.06 18.43C31.6324 18.8991 31.1079 19.2695 30.5229 19.5156C29.9379 19.7616 29.3063 19.8775 28.672 19.855C27.6552 19.8436 26.6495 19.6432 25.706 19.264C25.6331 19.2439 25.5569 19.2384 25.4818 19.2477C25.4067 19.2571 25.3342 19.2812 25.2684 19.3185C25.2026 19.3559 25.1448 19.4059 25.0983 19.4656C25.0519 19.5253 25.0176 19.5936 24.9975 19.6665C24.9774 19.7395 24.9719 19.8157 24.9812 19.8907C24.9906 19.9658 25.0146 20.0383 25.052 20.1041C25.0894 20.1699 25.1394 20.2277 25.1991 20.2742C25.2588 20.3207 25.3271 20.3549 25.4 20.375C25.522 20.4223 25.6447 20.4683 25.768 20.513C25.7699 20.5944 25.7933 20.6737 25.8358 20.7431C25.8783 20.8125 25.9384 20.8694 26.01 20.908C27.0178 21.4895 28.1861 21.7309 29.3419 21.5965C30.4977 21.4622 31.5794 20.9592 32.427 20.162C32.7889 19.7923 33.1116 19.3861 33.39 18.95C33.4949 18.7613 33.5887 18.5666 33.671 18.367C33.7872 18.1923 33.8943 18.0117 33.992 17.826C34.2223 17.355 34.3685 16.8474 34.424 16.326C34.458 16.17 34.544 15.464 34.51 15.703" fill="black"/>
</g>
</g>
<g opacity="0.129">
<mask id="mask3_2218_9" style="mask-type:luminance" maskUnits="userSpaceOnUse" x="38" y="39" width="11" height="7">
<path d="M48.557 39.037H38.835V45.899H48.557V39.037Z" fill="white"/>
</mask>
<g mask="url(#mask3_2218_9)">
<path d="M48.542 39.4399C48.5441 39.3534 48.5175 39.2685 48.4663 39.1986C48.4152 39.1287 48.3425 39.0777 48.2593 39.0534C48.1762 39.0291 48.0874 39.0329 48.0067 39.0643C47.926 39.0957 47.8579 39.1529 47.813 39.2269C47.643 39.7559 47.768 40.2369 47.624 40.7589C47.5434 41.0653 47.4473 41.3673 47.336 41.6639C47.304 41.7209 47.27 41.7789 47.236 41.8359C47.124 42.0146 47.0047 42.1883 46.878 42.3569C46.672 42.6259 46.4339 42.8687 46.169 43.0799C45.4164 43.5933 44.6363 44.065 43.832 44.4929C43.2721 44.7044 42.6704 44.7818 42.0752 44.7192C41.4799 44.6565 40.9076 44.4554 40.404 44.1319C40.064 43.9459 40.07 43.7859 39.569 43.4629C39.4568 43.4176 39.3323 43.4122 39.2166 43.4476C39.1008 43.483 39.0008 43.5572 38.9332 43.6576C38.8655 43.758 38.8345 43.8786 38.8452 43.9992C38.8559 44.1198 38.9077 44.233 38.992 44.3199C39.5429 44.9152 40.2288 45.3693 40.992 45.6439C41.7753 45.8839 42.6016 45.9498 43.413 45.8369C43.662 45.7829 43.9049 45.7039 44.138 45.6009C44.1721 45.7032 44.2435 45.7889 44.338 45.8409C44.67 46.0109 45.049 45.7589 45.356 45.6279C46.2508 45.1171 46.9931 44.3766 47.506 43.4829C47.5191 43.4598 47.5305 43.4358 47.54 43.4109C47.583 43.3389 47.715 43.0109 47.778 42.8939L47.802 42.8429C48.091 42.3954 48.3049 41.9036 48.435 41.3869C48.5092 41.056 48.5481 40.7181 48.551 40.3789C48.557 40.2849 48.563 40.1899 48.563 40.0949C48.5733 39.8763 48.5699 39.6572 48.553 39.4389" fill="black"/>
</g>
</g>
<g opacity="0.129">
<mask id="mask4_2218_9" style="mask-type:luminance" maskUnits="userSpaceOnUse" x="10" y="39" width="11" height="8">
<path d="M20.584 39.656H10.067V46.157H20.584V39.656Z" fill="white"/>
</mask>
<g mask="url(#mask4_2218_9)">
<path d="M20.525 40.192C20.494 40.013 20.469 39.805 20.292 39.71C20.2466 39.6834 20.1964 39.666 20.1442 39.6589C20.0921 39.6517 20.039 39.6549 19.9881 39.6683C19.9372 39.6817 19.8894 39.705 19.8475 39.7368C19.8057 39.7687 19.7705 39.8085 19.744 39.854C19.6912 39.9476 19.6769 40.0581 19.704 40.162C19.704 40.168 19.704 40.169 19.704 40.162C19.7302 40.3033 19.7492 40.4458 19.761 40.589C19.7929 41.073 19.7003 41.557 19.492 41.995C19.436 42.125 19.492 41.995 19.512 41.95C19.2687 42.5118 18.939 43.0321 18.535 43.492C18.0153 44.0894 17.3609 44.5545 16.626 44.849C15.3215 45.173 13.9434 45.0038 12.756 44.374C12.2712 44.1252 11.8362 43.7893 11.473 43.383C11.22 43.166 11.016 42.757 10.736 42.615C10.6335 42.5739 10.52 42.5692 10.4144 42.6016C10.3088 42.6341 10.2175 42.7017 10.1558 42.7933C10.094 42.8849 10.0655 42.9949 10.075 43.1049C10.0845 43.2149 10.1315 43.3184 10.208 43.398C10.9001 44.3523 11.8376 45.1014 12.921 45.566C14.015 46.0871 15.2421 46.2615 16.438 46.066C17.3067 45.8122 18.1051 45.3617 18.7714 44.7493C19.4377 44.1369 19.954 43.3792 20.28 42.535C20.4309 42.1392 20.5236 41.7235 20.555 41.301V41.31C20.6091 40.9383 20.601 40.5601 20.531 40.191" fill="black"/>
</g>
</g>
</g>
</g>
</svg>
