<svg width="57" height="57" viewBox="0 0 57 57" fill="none" xmlns="http://www.w3.org/2000/svg">
<path d="M46 0H11C4.92487 0 0 4.92487 0 11V46C0 52.0751 4.92487 57 11 57H46C52.0751 57 57 52.0751 57 46V11C57 4.92487 52.0751 0 46 0Z" fill="#FE3D3B"/>
<mask id="mask0_2218_7" style="mask-type:luminance" maskUnits="userSpaceOnUse" x="13" y="8" width="31" height="41">
<path d="M43.676 8.09705H13.325V48.903H43.676V8.09705Z" fill="white"/>
</mask>
<g mask="url(#mask0_2218_7)">
<mask id="mask1_2218_7" style="mask-type:luminance" maskUnits="userSpaceOnUse" x="13" y="8" width="31" height="41">
<path d="M43.676 8.09705H13.325V48.903H43.676V8.09705Z" fill="white"/>
</mask>
<g mask="url(#mask1_2218_7)">
<path d="M43.081 13.276C42.717 25.0627 42.8273 36.8507 43.412 48.64C33.461 48.318 23.595 48.22 13.741 48.482C13.531 36.547 13.6 24.798 13.597 12.917C23.18 12.917 32.762 12.917 43.081 13.276Z" fill="white"/>
<path d="M43.412 48.904H43.403C32.609 48.554 22.909 48.504 13.748 48.746C13.713 48.748 13.6779 48.7425 13.6451 48.73C13.6124 48.7174 13.5827 48.6979 13.558 48.673C13.5329 48.6489 13.5128 48.62 13.4989 48.5881C13.485 48.5562 13.4775 48.5218 13.477 48.487C13.311 38.996 13.325 29.448 13.325 20.21C13.325 17.7826 13.325 15.3513 13.325 12.916C13.3245 12.8802 13.3312 12.8447 13.3448 12.8116C13.3583 12.7785 13.3785 12.7485 13.404 12.7234C13.4296 12.6984 13.4599 12.6788 13.4933 12.6658C13.5266 12.6528 13.5623 12.6468 13.598 12.648C23.023 12.648 32.768 12.648 43.091 13.007C43.1607 13.0096 43.2265 13.0397 43.2741 13.0906C43.3217 13.1416 43.3472 13.2093 43.345 13.279C42.983 25.008 43.095 36.899 43.676 48.622C43.6778 48.6577 43.6723 48.6935 43.6598 48.727C43.6473 48.7606 43.6281 48.7912 43.6034 48.8171C43.5787 48.843 43.549 48.8636 43.5161 48.8777C43.4832 48.8918 43.4478 48.899 43.412 48.899M25.361 48.062C30.992 48.062 36.879 48.162 43.134 48.362C42.568 36.806 42.459 25.089 42.808 13.526C32.688 13.176 23.118 13.175 13.86 13.176C13.86 15.5233 13.86 17.8666 13.86 20.206C13.851 29.353 13.842 38.806 14.003 48.206C17.69 48.106 21.465 48.063 25.364 48.063" fill="black"/>
<path d="M40.243 15.093C39.7468 25.3525 39.8804 35.6328 40.643 45.876C32.564 45.74 24.517 45.602 16.491 45.908C16.402 35.508 16.175 25.308 15.997 15.062C24.397 15.145 32.497 15.162 40.246 15.093" fill="white"/>
<path d="M16.488 46.171C16.4184 46.1708 16.3517 46.1431 16.3023 46.0941C16.2529 46.0451 16.2248 45.9786 16.224 45.909C16.158 38.245 16.015 30.569 15.877 23.146C15.827 20.4527 15.778 17.759 15.73 15.065C15.7293 15.0298 15.7357 14.9947 15.7488 14.962C15.7619 14.9293 15.7815 14.8995 15.8062 14.8744C15.831 14.8493 15.8606 14.8295 15.8932 14.816C15.9258 14.8025 15.9608 14.7958 15.996 14.796C25.083 14.886 33.014 14.896 40.24 14.827C40.2761 14.8267 40.312 14.8338 40.3453 14.8479C40.3785 14.8619 40.4086 14.8827 40.4335 14.9088C40.4585 14.935 40.4778 14.966 40.4902 14.9999C40.5027 15.0338 40.5081 15.07 40.506 15.106C40.0026 25.3544 40.1362 35.6242 40.906 45.856C40.9085 45.8925 40.9034 45.9292 40.891 45.9636C40.8786 45.998 40.8592 46.0295 40.834 46.056C40.8082 46.0828 40.777 46.1039 40.7426 46.118C40.7082 46.1321 40.6712 46.1389 40.634 46.138H40.521C32.634 46.005 24.478 45.867 16.496 46.172H16.486M16.263 15.328C16.3083 17.9327 16.3557 20.5357 16.405 23.137C16.542 30.473 16.683 38.057 16.75 45.637C24.6 45.347 32.607 45.479 40.359 45.61C39.6111 35.5452 39.4776 25.4441 39.959 15.363C32.877 15.429 25.118 15.418 16.259 15.332" fill="black"/>
<path d="M35.877 12.443C34.892 12.395 31.935 12.364 30.934 12.343C30.475 11.908 30.984 9.74303 30.18 8.94303C29.7094 8.53741 29.1005 8.32894 28.48 8.36103C27.8582 8.31078 27.2401 8.49483 26.747 8.87703C25.898 9.69603 26.109 12.162 25.93 12.335C24.866 12.349 21.743 12.371 20.676 12.397C20.676 15.65 21.976 16.205 25.1 16.302C29.957 16.454 32.952 16.435 34.187 15.919C34.8568 15.6617 35.4038 15.1596 35.7175 14.5143C36.0312 13.869 36.0882 13.1287 35.877 12.443ZM27.238 12.323C27.238 11.633 27.066 10.084 28.52 10.084C29.537 10.084 29.32 12.161 29.408 12.324C28.6874 12.3187 27.964 12.3187 27.238 12.324" fill="white"/>
<path d="M29.347 16.65C28.128 16.65 26.712 16.618 25.096 16.568C21.86 16.468 20.416 15.841 20.416 12.399C20.416 12.3302 20.4428 12.2641 20.4908 12.2148C20.5389 12.1655 20.6042 12.1369 20.673 12.135C21.388 12.117 23.026 12.101 24.342 12.089L25.732 12.075C25.746 11.949 25.758 11.76 25.768 11.598C25.825 10.691 25.911 9.32103 26.568 8.68903C27.1085 8.26109 27.7892 8.05001 28.477 8.09703C29.1686 8.06257 29.8464 8.29937 30.366 8.75703C30.8314 9.42875 31.044 10.2436 30.966 11.057C30.9576 11.4018 30.9929 11.7462 31.071 12.082L32.12 12.097C33.407 12.116 35.169 12.142 35.889 12.177C35.9488 12.18 36.0058 12.2032 36.0507 12.2428C36.0956 12.2824 36.1257 12.3361 36.136 12.395C36.3591 13.1398 36.2931 13.9412 35.9513 14.6395C35.6095 15.3377 35.017 15.8814 34.292 16.162C32.6811 16.5921 31.0108 16.7562 29.347 16.648M20.947 12.655C21.007 15.432 22.077 15.944 25.113 16.039C29.891 16.188 32.892 16.177 34.089 15.676C34.6731 15.4624 35.1567 15.0387 35.4451 14.4876C35.7336 13.9366 35.8063 13.2978 35.649 12.696C34.843 12.666 33.281 12.643 32.112 12.625L30.928 12.607C30.8623 12.6054 30.7996 12.5793 30.752 12.534C30.476 12.273 30.457 11.745 30.433 11.076C30.4959 10.3964 30.3414 9.71434 29.992 9.12803C29.5746 8.77518 29.0376 8.59618 28.492 8.62803C27.9363 8.57699 27.3813 8.73336 26.934 9.06703C26.4754 9.84063 26.2536 10.7317 26.296 11.63C26.261 12.191 26.247 12.4 26.117 12.53C26.0686 12.5766 26.0042 12.6031 25.937 12.604L24.347 12.621C23.174 12.632 21.747 12.646 20.947 12.661M29.407 12.592C28.699 12.586 27.97 12.586 27.241 12.592C27.2061 12.5928 27.1714 12.5863 27.139 12.5731C27.1067 12.5598 27.0774 12.5401 27.053 12.515C27.0033 12.4655 26.9752 12.3982 26.975 12.328C26.975 12.269 26.975 12.202 26.975 12.128C26.8802 11.4556 27.0493 10.7725 27.447 10.222C27.5896 10.0852 27.7588 9.97911 27.944 9.91031C28.1293 9.84151 28.3267 9.81146 28.524 9.82203C29.566 9.82203 29.618 11.265 29.643 11.959C29.643 12.059 29.651 12.186 29.658 12.231C29.6734 12.271 29.6789 12.3141 29.6739 12.3567C29.6689 12.3992 29.6537 12.4399 29.6295 12.4753C29.6053 12.5106 29.5728 12.5395 29.5349 12.5595C29.497 12.5795 29.4549 12.59 29.412 12.59M28.271 12.055H29.116C29.116 12.029 29.116 12.002 29.116 11.973C29.097 11.445 29.057 10.345 28.525 10.345C28.398 10.3352 28.2703 10.3516 28.1499 10.3933C28.0294 10.4349 27.9189 10.5008 27.825 10.587C27.5457 11.0218 27.4315 11.5423 27.503 12.054H28.275" fill="black"/>
<path d="M20.763 23.924H20.758C20.7095 23.9229 20.6622 23.9086 20.6213 23.8825C20.5804 23.8564 20.5474 23.8195 20.526 23.776C20.2274 23.1643 19.8647 22.5861 19.444 22.051C19.4213 22.0239 19.4042 21.9925 19.3939 21.9586C19.3835 21.9248 19.3801 21.8893 19.3837 21.8541C19.3874 21.8189 19.3981 21.7848 19.4152 21.7538C19.4323 21.7228 19.4554 21.6956 19.4832 21.6738C19.5111 21.6519 19.543 21.6359 19.5771 21.6266C19.6113 21.6173 19.6469 21.615 19.682 21.6198C19.717 21.6246 19.7508 21.6363 19.7812 21.6544C19.8116 21.6725 19.8381 21.6965 19.859 21.725C20.1981 22.1564 20.5018 22.6146 20.767 23.095L21.954 20.886C21.9877 20.8254 22.044 20.7805 22.1105 20.761C22.1771 20.7415 22.2486 20.749 22.3097 20.7818C22.3708 20.8147 22.4165 20.8702 22.437 20.9365C22.4574 21.0028 22.451 21.0744 22.419 21.136L20.996 23.785C20.9734 23.8271 20.9398 23.8622 20.8987 23.8867C20.8577 23.9112 20.8108 23.9241 20.763 23.924Z" fill="black"/>
<path d="M20.763 30.8831H20.758C20.7095 30.882 20.6622 30.8676 20.6213 30.8415C20.5804 30.8154 20.5474 30.7786 20.526 30.7351C20.2276 30.1238 19.8652 29.5459 19.445 29.0111C19.4044 28.9558 19.3869 28.887 19.3961 28.819C19.4054 28.7511 19.4407 28.6894 19.4946 28.6471C19.5485 28.6047 19.6168 28.585 19.685 28.5921C19.7532 28.5992 19.816 28.6325 19.86 28.6851C20.1992 29.1165 20.5028 29.5746 20.768 30.0551L21.955 27.8461C21.9887 27.7855 22.045 27.7406 22.1115 27.7211C22.1781 27.7016 22.2496 27.7091 22.3107 27.7419C22.3718 27.7748 22.4175 27.8303 22.438 27.8966C22.4584 27.9629 22.452 28.0345 22.42 28.0961L20.997 30.7451C20.9744 30.7872 20.9408 30.8223 20.8997 30.8468C20.8587 30.8713 20.8118 30.8842 20.764 30.8841" fill="black"/>
<path d="M20.242 37.8421H20.237C20.1885 37.841 20.1412 37.8266 20.1003 37.8005C20.0594 37.7744 20.0264 37.7376 20.005 37.6941C19.7066 37.0825 19.3442 36.5043 18.924 35.9691C18.9013 35.942 18.8842 35.9106 18.8739 35.8767C18.8635 35.8429 18.8601 35.8073 18.8637 35.7722C18.8674 35.737 18.8781 35.7029 18.8952 35.6719C18.9123 35.6409 18.9354 35.6137 18.9632 35.5919C18.9911 35.57 19.023 35.554 19.0571 35.5447C19.0913 35.5354 19.1269 35.5331 19.162 35.5379C19.197 35.5427 19.2308 35.5544 19.2612 35.5725C19.2916 35.5906 19.3181 35.6146 19.339 35.6431C19.6778 36.0745 19.9811 36.5327 20.246 37.0131L21.433 34.8041C21.4667 34.7435 21.523 34.6986 21.5895 34.6791C21.6561 34.6596 21.7276 34.6671 21.7887 34.6999C21.8498 34.7328 21.8955 34.7883 21.916 34.8546C21.9364 34.9209 21.93 34.9925 21.898 35.0541L20.475 37.7031C20.4524 37.7452 20.4188 37.7803 20.3777 37.8048C20.3367 37.8293 20.2898 37.8422 20.242 37.8421Z" fill="black"/>
<path d="M27.021 24.0381C26.3337 24.0381 25.6477 24.0351 24.963 24.0291C24.893 24.0291 24.8258 24.0012 24.7763 23.9517C24.7268 23.9022 24.699 23.8351 24.699 23.7651C24.699 23.695 24.7268 23.6279 24.7763 23.5784C24.8258 23.5289 24.893 23.5011 24.963 23.5011C29.063 23.5381 33.214 23.4641 37.306 23.2821C37.3407 23.28 37.3755 23.285 37.4083 23.2967C37.441 23.3083 37.4711 23.3264 37.4968 23.3499C37.5224 23.3734 37.5431 23.4018 37.5576 23.4335C37.572 23.4651 37.58 23.4993 37.581 23.5341C37.584 23.6039 37.5591 23.6721 37.5119 23.7237C37.4646 23.7752 37.3989 23.8059 37.329 23.8091C33.911 23.9611 30.451 24.0381 27.016 24.0381" fill="black"/>
<path d="M27.021 30.8631C26.3337 30.8631 25.6477 30.8601 24.963 30.8541C24.893 30.8541 24.8258 30.8262 24.7763 30.7767C24.7268 30.7272 24.699 30.6601 24.699 30.5901C24.699 30.52 24.7268 30.4529 24.7763 30.4034C24.8258 30.3539 24.893 30.3261 24.963 30.3261C29.063 30.3631 33.214 30.2891 37.306 30.1071C37.374 30.107 37.4395 30.1333 37.4886 30.1803C37.5377 30.2274 37.5668 30.2916 37.5698 30.3596C37.5728 30.4275 37.5494 30.494 37.5045 30.5451C37.4597 30.5963 37.3968 30.6281 37.329 30.6341C33.911 30.7861 30.451 30.8631 27.016 30.8631" fill="black"/>
<path d="M27.204 37.689C26.5167 37.689 25.8307 37.6861 25.146 37.6801C25.076 37.6801 25.0089 37.6522 24.9593 37.6027C24.9098 37.5532 24.882 37.4861 24.882 37.4161C24.882 37.346 24.9098 37.2789 24.9593 37.2294C25.0089 37.1799 25.076 37.1521 25.146 37.1521C29.246 37.1891 33.397 37.1151 37.49 36.9331H37.502C37.572 36.9315 37.6398 36.9577 37.6905 37.0061C37.7411 37.0545 37.7704 37.121 37.772 37.191C37.7736 37.2611 37.7473 37.3289 37.6989 37.3795C37.6506 37.4301 37.584 37.4595 37.514 37.4611C34.096 37.6131 30.636 37.69 27.2 37.69" fill="black"/>
<g opacity="0.129">
<mask id="mask2_2218_7" style="mask-type:luminance" maskUnits="userSpaceOnUse" x="21" y="13" width="16" height="5">
<path d="M36.452 13.621H21.592V17.647H36.452V13.621Z" fill="white"/>
</mask>
<g mask="url(#mask2_2218_7)">
<path d="M36.445 13.9999C36.4355 13.9149 36.4006 13.8348 36.3447 13.77C36.2889 13.7052 36.2147 13.6588 36.132 13.6369C35.781 13.5479 35.575 13.8429 35.547 14.1569C35.541 14.2359 35.433 14.5359 35.447 14.5169C35.4122 14.6036 35.3721 14.6881 35.327 14.7699C35.302 14.8399 35.138 15.0949 35.09 15.1699C35.0464 15.2212 34.999 15.269 34.948 15.3129C34.7807 15.44 34.6038 15.554 34.419 15.6539C34.157 15.7469 33.878 15.7809 33.619 15.8679C33.3906 15.9551 33.1568 16.0272 32.919 16.0839C32.577 16.0979 32.239 16.1559 31.9 16.1919C31.4762 16.2361 31.05 16.2528 30.624 16.2419C29.713 16.2419 28.802 16.3469 27.889 16.3419C26.939 16.2929 25.989 16.2319 25.04 16.1799C24.3214 16.1766 23.6095 16.041 22.94 15.7799C23.009 15.8079 23.063 15.8359 22.955 15.7869L22.933 15.7769L22.904 15.7659L22.931 15.7759C22.6939 15.6363 22.4425 15.5227 22.181 15.4369C22.0641 15.4232 21.946 15.4498 21.8463 15.5124C21.7466 15.575 21.6713 15.6698 21.6329 15.781C21.5945 15.8923 21.5953 16.0133 21.6351 16.1241C21.675 16.2349 21.7515 16.3287 21.852 16.3899C22.6076 16.8758 23.4416 17.2273 24.317 17.4289C25.1339 17.5371 25.957 17.5925 26.781 17.5949C27.4422 17.6434 28.1058 17.6518 28.768 17.6199C29.4213 17.6177 30.0738 17.5719 30.721 17.4829C30.921 17.4719 32.107 17.3209 32.221 17.2829C32.6247 17.2406 33.0254 17.1738 33.421 17.0829C33.912 16.9099 34.415 16.7669 34.901 16.5829C35.1156 16.4674 35.3168 16.3286 35.501 16.1689L35.401 16.2489C35.6341 16.0843 35.8255 15.8676 35.96 15.6159C36.1662 15.225 36.3173 14.8073 36.409 14.3749C36.4472 14.2496 36.4641 14.1188 36.459 13.9879" fill="black"/>
</g>
</g>
<g opacity="0.129">
<mask id="mask3_2218_7" style="mask-type:luminance" maskUnits="userSpaceOnUse" x="16" y="15" width="26" height="32">
<path d="M41.456 15.225H16.173V46.939H41.456V15.225Z" fill="white"/>
</mask>
<g mask="url(#mask3_2218_7)">
<path d="M41.263 39.526C41.184 38.464 41.209 37.397 41.118 36.335C41.018 34.785 40.85 33.235 40.786 31.685C40.806 30.835 40.623 29.999 40.63 29.148C40.59 27.848 40.686 26.548 40.723 25.255C40.748 23.475 40.696 21.693 40.858 19.918C40.8487 18.9177 40.9005 17.9179 41.013 16.924C41.036 16.584 41.023 16.243 41.048 15.904C41.048 15.87 41.048 15.837 41.054 15.804C41.0634 15.7531 41.0634 15.7009 41.054 15.65C41.0433 15.5532 41.0036 15.462 40.94 15.3883C40.8765 15.3146 40.7921 15.2618 40.698 15.237C39.765 15.075 40.053 16.563 39.922 17.231C39.768 18.209 39.832 19.198 39.771 20.182C39.61 22.016 39.771 23.859 39.738 25.696C39.729 26.972 39.678 28.248 39.681 29.524C39.69 30.158 39.808 30.783 39.815 31.416C39.837 32.686 39.939 33.952 39.972 35.222C40.0733 36.9033 40.1247 38.5866 40.126 40.272C40.221 41.82 40.288 43.372 40.248 44.921C40.2501 45.1622 40.2109 45.402 40.132 45.63C39.5746 45.5689 39.0133 45.5502 38.453 45.574C37.037 45.574 35.622 45.543 34.206 45.562C33.157 45.577 32.106 45.673 31.061 45.682C29.474 45.69 27.886 45.697 26.299 45.668C25.6443 45.6115 24.9866 45.5968 24.33 45.624C22.777 45.708 21.219 45.632 19.666 45.587C18.9215 45.5244 18.1731 45.5207 17.428 45.576C17.2557 45.5742 17.0842 45.552 16.917 45.51C16.7656 45.4682 16.6037 45.4883 16.4671 45.5658C16.3305 45.6434 16.2303 45.772 16.1885 45.9235C16.1467 46.0749 16.1668 46.2367 16.2444 46.3734C16.3219 46.51 16.4506 46.6102 16.602 46.652C17.6071 46.7818 18.6187 46.8543 19.632 46.869C20.956 46.9203 22.281 46.9433 23.607 46.938C24.497 46.896 25.386 46.878 26.277 46.913C29.116 46.964 31.955 46.936 34.789 46.763C36.389 46.663 37.989 46.777 39.584 46.687C39.949 46.66 40.316 46.743 40.678 46.687C40.7817 46.6579 40.8747 46.5993 40.9457 46.5183C41.0167 46.4374 41.0627 46.3376 41.078 46.231C41.1284 46.17 41.1646 46.0986 41.184 46.022C41.3661 45.2715 41.4524 44.5011 41.441 43.729C41.458 42.3268 41.3983 40.9247 41.262 39.529" fill="black"/>
</g>
</g>
</g>
</g>
</svg>
