<svg width="364" height="318" viewBox="0 0 364 318" fill="none" xmlns="http://www.w3.org/2000/svg">
<mask id="mask0_2263_17" style="mask-type:luminance" maskUnits="userSpaceOnUse" x="0" y="19" width="308" height="299">
<path d="M270.995 19.0407L0.372986 57.0742L37.0047 317.723L307.627 279.689L270.995 19.0407Z" fill="white"/>
</mask>
<g mask="url(#mask0_2263_17)">
<path d="M148.165 302.09C144.945 302.09 141.547 301.991 138.066 301.793C137.892 301.783 137.721 301.739 137.563 301.663C137.405 301.587 137.264 301.48 137.148 301.35C137.031 301.219 136.942 301.067 136.884 300.902C136.826 300.737 136.802 300.562 136.811 300.388C136.821 300.213 136.865 300.042 136.941 299.884C137.017 299.727 137.124 299.586 137.254 299.469C137.385 299.353 137.537 299.263 137.702 299.205C137.867 299.148 138.042 299.123 138.217 299.133C141.647 299.326 144.994 299.423 148.165 299.423C148.502 299.423 148.826 299.551 149.073 299.781C149.319 300.011 149.469 300.325 149.493 300.662C149.517 300.998 149.412 301.33 149.2 301.592C148.988 301.855 148.685 302.027 148.351 302.074C148.29 302.082 148.227 302.087 148.164 302.087M128.02 300.971C124.671 300.612 121.31 300.166 118.031 299.642C117.858 299.614 117.693 299.553 117.543 299.462C117.394 299.37 117.265 299.25 117.162 299.108C117.06 298.967 116.986 298.806 116.945 298.636C116.905 298.466 116.898 298.289 116.925 298.117C116.953 297.944 117.014 297.778 117.106 297.629C117.197 297.48 117.317 297.351 117.459 297.248C117.601 297.145 117.761 297.071 117.931 297.031C118.102 296.99 118.278 296.983 118.451 297.011C121.684 297.527 125 297.968 128.304 298.322C128.627 298.357 128.927 298.508 129.146 298.748C129.366 298.988 129.49 299.3 129.495 299.625C129.501 299.95 129.387 300.265 129.176 300.512C128.965 300.759 128.67 300.921 128.349 300.966C128.24 300.981 128.129 300.983 128.02 300.971ZM108.122 297.785C104.8 297.066 101.506 296.252 98.3327 295.363C98.1629 295.317 98.0039 295.238 97.8649 295.13C97.7259 295.022 97.6096 294.888 97.5228 294.735C97.4359 294.582 97.3802 294.413 97.3589 294.239C97.3376 294.064 97.351 293.887 97.3985 293.718C97.446 293.548 97.5265 293.39 97.6355 293.252C97.7445 293.114 97.8797 292.999 98.0334 292.913C98.1871 292.828 98.3562 292.774 98.531 292.754C98.7058 292.734 98.8828 292.749 99.0517 292.798C102.174 293.672 105.414 294.474 108.685 295.18C108.857 295.216 109.021 295.286 109.166 295.385C109.311 295.484 109.435 295.611 109.531 295.758C109.627 295.906 109.693 296.071 109.724 296.244C109.756 296.417 109.753 296.594 109.716 296.766C109.679 296.938 109.608 297.101 109.508 297.245C109.407 297.39 109.279 297.513 109.131 297.607C108.983 297.702 108.817 297.766 108.644 297.797C108.471 297.827 108.294 297.824 108.122 297.785ZM88.7122 292.324C85.4892 291.185 82.3297 289.936 79.3214 288.614C79.0041 288.468 78.7569 288.203 78.6329 287.877C78.5089 287.55 78.5181 287.188 78.6585 286.868C78.799 286.549 79.0594 286.297 79.3837 286.167C79.708 286.037 80.0703 286.04 80.3924 286.175C83.3395 287.472 86.4372 288.697 89.5984 289.813C89.7633 289.872 89.9151 289.962 90.0452 290.079C90.1753 290.196 90.2811 290.337 90.3565 290.495C90.4319 290.653 90.4754 290.824 90.4847 290.999C90.4939 291.174 90.4687 291.349 90.4104 291.513C90.3521 291.678 90.2618 291.83 90.1448 291.96C90.0278 292.09 89.8864 292.196 89.7285 292.272C89.5707 292.347 89.3995 292.391 89.2248 292.4C89.0501 292.409 88.8753 292.384 88.7103 292.325M70.2514 284.168C67.2476 282.533 64.3368 280.769 61.6028 278.927C61.3132 278.728 61.1139 278.423 61.0482 278.078C60.9825 277.733 61.0557 277.376 61.2519 277.085C61.448 276.793 61.7513 276.591 62.0957 276.522C62.4401 276.454 62.7977 276.524 63.0907 276.717C65.7567 278.514 68.5947 280.233 71.5253 281.829C71.6826 281.911 71.8221 282.023 71.9356 282.159C72.0491 282.295 72.1342 282.452 72.1861 282.622C72.238 282.791 72.2555 282.969 72.2376 283.146C72.2198 283.322 72.1669 283.493 72.0822 283.649C71.9974 283.804 71.8824 283.942 71.744 284.052C71.6056 284.163 71.4464 284.245 71.2759 284.293C71.1054 284.341 70.927 284.355 70.7511 284.334C70.5751 284.312 70.4053 284.256 70.2514 284.168ZM53.5128 272.846C50.9226 270.678 48.4572 268.364 46.1285 265.917C45.8852 265.66 45.7537 265.318 45.7628 264.965C45.772 264.612 45.9211 264.276 46.1774 264.033C46.4336 263.79 46.776 263.658 47.1293 263.667C47.4825 263.677 47.8177 263.826 48.061 264.082C50.32 266.456 52.7116 268.701 55.2243 270.804C55.4951 271.031 55.6646 271.357 55.6956 271.709C55.7266 272.061 55.6165 272.41 55.3896 272.681C55.1626 272.952 54.8374 273.121 54.4854 273.152C54.1335 273.184 53.7836 273.073 53.5128 272.846ZM39.6031 258.172C37.5867 255.461 35.7371 252.63 34.0645 249.695C33.8906 249.388 33.8455 249.024 33.9393 248.684C34.033 248.344 34.2578 248.055 34.5644 247.881C34.871 247.706 35.2343 247.66 35.5746 247.753C35.9149 247.846 36.2044 248.071 36.3796 248.377C37.9987 251.218 39.7887 253.958 41.7396 256.582C41.8494 256.722 41.93 256.882 41.9767 257.053C42.0235 257.225 42.0354 257.404 42.0119 257.58C41.9883 257.757 41.9297 257.926 41.8395 258.079C41.7493 258.233 41.6294 258.366 41.4868 258.472C41.3442 258.579 41.1817 258.655 41.0091 258.697C40.8364 258.74 40.657 258.747 40.4815 258.719C40.3059 258.691 40.1378 258.628 39.9869 258.534C39.8361 258.44 39.7056 258.317 39.6031 258.172ZM29.5914 240.616C28.2855 237.508 27.1541 234.329 26.2024 231.095C26.1499 230.926 26.1316 230.749 26.1483 230.573C26.1651 230.397 26.2166 230.227 26.2999 230.071C26.3832 229.915 26.4967 229.778 26.6337 229.666C26.7706 229.555 26.9284 229.472 27.0978 229.422C27.2672 229.372 27.4448 229.356 27.6203 229.376C27.7959 229.395 27.9658 229.449 28.1202 229.535C28.2747 229.62 28.4105 229.736 28.5199 229.874C28.6293 230.013 28.7101 230.172 28.7574 230.342C29.6816 233.481 30.7797 236.567 32.0467 239.584C32.1172 239.746 32.1549 239.92 32.1576 240.096C32.1603 240.273 32.128 240.448 32.0625 240.611C31.997 240.775 31.8997 240.924 31.7761 241.05C31.6525 241.176 31.5052 241.276 31.3427 241.344C31.1802 241.413 31.0057 241.448 30.8293 241.449C30.653 241.449 30.4783 241.415 30.3154 241.347C30.1525 241.28 30.0047 241.18 29.8804 241.055C29.7562 240.93 29.6581 240.781 29.5917 240.618M23.7325 221.31C23.1817 218.706 22.7242 216.111 22.3711 213.599C22.2648 212.842 22.1671 212.083 22.079 211.341C22.0554 211.165 22.067 210.987 22.1129 210.817C22.1589 210.646 22.2384 210.486 22.3467 210.347C22.455 210.207 22.5901 210.09 22.744 210.003C22.8978 209.917 23.0675 209.861 23.243 209.84C23.4185 209.82 23.5964 209.834 23.7662 209.883C23.9361 209.932 24.0946 210.014 24.2325 210.124C24.3703 210.235 24.4848 210.372 24.5693 210.527C24.6537 210.682 24.7064 210.853 24.7243 211.028C24.8096 211.751 24.9056 212.491 25.0093 213.229C25.354 215.682 25.8021 218.216 26.3393 220.759C26.412 221.105 26.3446 221.465 26.152 221.761C25.9594 222.057 25.6573 222.264 25.3119 222.338C25.2812 222.342 25.2505 222.346 25.2198 222.351C24.8859 222.397 24.5467 222.315 24.2708 222.121C23.9948 221.928 23.8027 221.636 23.733 221.306M22.7674 202.558C22.5921 202.56 22.4182 202.527 22.2557 202.461C22.0932 202.395 21.9453 202.297 21.8205 202.174C21.6957 202.051 21.5964 201.904 21.5283 201.743C21.4602 201.581 21.4247 201.408 21.4238 201.232C21.3896 197.845 21.5789 194.459 21.9906 191.096C22.0344 190.745 22.2157 190.427 22.4945 190.21C22.7734 189.993 23.127 189.895 23.4776 189.939C23.8281 189.983 24.147 190.164 24.3639 190.443C24.5808 190.722 24.6781 191.076 24.6343 191.426C24.2382 194.672 24.0566 197.94 24.0906 201.21C24.0939 201.535 23.9786 201.849 23.7664 202.095C23.5542 202.34 23.2596 202.5 22.938 202.543C22.8797 202.552 22.821 202.556 22.7622 202.557M24.93 182.774C24.5909 182.675 24.3051 182.445 24.1353 182.135C23.9654 181.826 23.9255 181.461 24.0242 181.122C24.9746 177.842 26.2313 174.66 27.7778 171.616C27.9388 171.301 28.2181 171.064 28.5543 170.955C28.8905 170.846 29.2561 170.876 29.5707 171.037C29.8852 171.198 30.1229 171.477 30.2315 171.813C30.3402 172.149 30.3108 172.515 30.1498 172.83C28.6796 175.724 27.4851 178.75 26.582 181.868C26.5331 182.036 26.4516 182.193 26.3421 182.329C26.2326 182.466 26.0973 182.579 25.9438 182.664C25.7904 182.748 25.6218 182.801 25.4479 182.82C25.2739 182.839 25.0979 182.823 24.93 182.774ZM68.4765 175.206C65.0127 175.458 61.5306 175.188 58.1473 174.403C57.8031 174.324 57.5046 174.111 57.3174 173.811C57.1302 173.512 57.0697 173.15 57.1492 172.806C57.2288 172.462 57.4417 172.163 57.7414 171.976C58.041 171.789 58.4027 171.728 58.7469 171.808C61.8659 172.532 65.0763 172.782 68.2698 172.55C68.6138 172.525 68.9541 172.634 69.2191 172.855C69.4841 173.075 69.6531 173.39 69.6907 173.733C69.7283 174.076 69.6315 174.42 69.4206 174.693C69.2097 174.965 68.9012 175.146 68.5599 175.196L68.4778 175.208M76.7576 171.846C76.6701 171.695 76.6133 171.528 76.5905 171.354C76.5677 171.181 76.5792 171.005 76.6245 170.836C76.6698 170.667 76.7479 170.508 76.8543 170.37C76.9608 170.231 77.0936 170.114 77.2451 170.027C79.3533 168.811 81.8405 166.655 81.7134 163.271C81.7 162.918 81.8275 162.574 82.0678 162.315C82.308 162.056 82.6414 161.903 82.9945 161.89C83.3477 161.876 83.6916 162.004 83.9507 162.244C84.2099 162.484 84.3629 162.818 84.3763 163.171C84.5137 166.843 82.4546 170.098 78.5773 172.335C78.2713 172.511 77.9078 172.559 77.5668 172.467C77.2257 172.376 76.934 172.152 76.7576 171.846ZM48.521 170.598C45.5157 168.843 42.8163 166.61 40.5292 163.987C40.4143 163.855 40.3265 163.702 40.2709 163.536C40.2152 163.37 40.1928 163.195 40.2048 163.02C40.2168 162.846 40.2631 162.676 40.3411 162.519C40.419 162.362 40.527 162.223 40.6589 162.108C40.7908 161.993 40.944 161.905 41.1099 161.849C41.2757 161.794 41.4509 161.771 41.6254 161.783C41.7999 161.795 41.9704 161.842 42.127 161.92C42.2836 161.997 42.4233 162.105 42.5382 162.237C44.6359 164.643 47.1113 166.691 49.8674 168.3C50.0199 168.388 50.1537 168.505 50.2609 168.644C50.368 168.784 50.4465 168.943 50.4917 169.113C50.537 169.283 50.5481 169.461 50.5244 169.635C50.5008 169.809 50.4428 169.977 50.3539 170.129C50.265 170.281 50.1469 170.413 50.0065 170.519C49.866 170.625 49.706 170.702 49.5356 170.746C49.3652 170.79 49.1878 170.799 49.0137 170.774C48.8396 170.749 48.672 170.688 48.521 170.598ZM33.57 164.903C33.4347 164.793 33.3225 164.656 33.24 164.502C33.1575 164.348 33.1062 164.179 33.089 164.004C33.0719 163.83 33.0892 163.655 33.1401 163.487C33.1909 163.32 33.2742 163.164 33.3853 163.029C35.5626 160.37 38.0441 157.975 40.7792 155.893C40.9186 155.788 41.0774 155.71 41.2466 155.666C41.4159 155.622 41.5922 155.611 41.7655 155.635C41.9389 155.658 42.1058 155.716 42.2569 155.804C42.408 155.893 42.5402 156.01 42.6459 156.149C42.7517 156.289 42.829 156.447 42.8734 156.617C42.9178 156.786 42.9285 156.962 42.9047 157.135C42.881 157.309 42.8233 157.476 42.7351 157.627C42.6468 157.778 42.5296 157.91 42.3903 158.016C39.8208 159.971 37.4896 162.22 35.4445 164.719C35.2203 164.992 34.8968 165.164 34.5452 165.199C34.1937 165.233 33.843 165.128 33.57 164.903ZM77.5901 155.553C75.2851 153.449 72.4759 151.976 69.4345 151.276C69.0917 151.191 68.797 150.972 68.6152 150.669C68.4334 150.366 68.3795 150.003 68.4652 149.661C68.5509 149.318 68.7693 149.023 69.0724 148.841C69.3754 148.66 69.7382 148.606 70.081 148.691C73.5641 149.5 76.7794 151.194 79.4154 153.61C79.673 153.852 79.824 154.186 79.8352 154.539C79.8464 154.892 79.7169 155.236 79.4751 155.493C79.2333 155.751 78.899 155.902 78.5459 155.913C78.1928 155.924 77.8497 155.795 77.592 155.553M35.0434 155.204C33.7027 152.031 32.7679 148.702 32.2612 145.295C32.2344 145.122 32.2419 144.945 32.2833 144.775C32.3246 144.605 32.3991 144.445 32.5024 144.304C32.6057 144.163 32.7357 144.043 32.8852 143.953C33.0347 143.862 33.2006 143.801 33.3734 143.774L33.3913 143.772C33.7379 143.723 34.0897 143.813 34.3707 144.021C34.6518 144.23 34.8394 144.541 34.893 144.887C35.3673 148.07 36.2412 151.182 37.4941 154.147C37.5666 154.308 37.6062 154.482 37.6107 154.659C37.6152 154.835 37.5845 155.011 37.5203 155.176C37.4561 155.341 37.3598 155.491 37.2369 155.618C37.1141 155.745 36.9671 155.847 36.8047 155.917C36.6422 155.986 36.4675 156.023 36.2907 156.025C36.1139 156.026 35.9386 155.992 35.7749 155.925C35.6113 155.859 35.4626 155.76 35.3375 155.635C35.2125 155.51 35.1136 155.361 35.0466 155.198M48.9849 152.479C48.8487 152.153 48.8474 151.787 48.9814 151.46C49.1154 151.133 49.3736 150.873 49.6993 150.737C52.8877 149.393 56.2499 148.507 59.6863 148.105C60.0276 148.083 60.3645 148.193 60.6271 148.412C60.8898 148.631 61.0581 148.943 61.0971 149.282C61.1362 149.622 61.043 149.964 60.8369 150.237C60.6309 150.51 60.3277 150.693 59.9901 150.749C56.8026 151.124 53.6843 151.948 50.7278 153.198C50.6224 153.242 50.5116 153.273 50.3983 153.288C50.1068 153.329 49.81 153.272 49.5543 153.127C49.2985 152.981 49.0982 152.755 48.9845 152.483M32.9803 136.465C32.6274 136.453 32.2938 136.301 32.0528 136.043C31.8119 135.784 31.6832 135.441 31.6953 135.088C31.8239 131.699 32.1827 128.323 32.7693 124.982C32.8293 124.634 33.0253 124.324 33.3139 124.12C33.6026 123.917 33.9604 123.836 34.3086 123.896C34.6567 123.956 34.9668 124.152 35.1705 124.441C35.3742 124.729 35.4549 125.087 35.3949 125.435C34.8286 128.656 34.4818 131.912 34.3569 135.18C34.3511 135.355 34.3109 135.526 34.2385 135.686C34.1662 135.845 34.0631 135.988 33.9352 136.108C33.8074 136.227 33.6572 136.32 33.4933 136.381C33.3295 136.443 33.1552 136.471 32.9803 136.465ZM35.9429 116.761C35.7744 116.714 35.6169 116.634 35.4793 116.526C35.3416 116.418 35.2266 116.284 35.1408 116.132C35.0549 115.979 34.9999 115.811 34.979 115.638C34.958 115.464 34.9714 115.288 35.0185 115.119C35.8838 112.022 36.9262 108.79 38.1302 105.516C38.1903 105.351 38.2822 105.201 38.4007 105.072C38.5191 104.943 38.6618 104.838 38.8205 104.765C38.9793 104.691 39.151 104.649 39.3259 104.642C39.5008 104.634 39.6754 104.662 39.8398 104.722C40.0042 104.782 40.1552 104.874 40.2841 104.992C40.4129 105.111 40.5172 105.253 40.591 105.412C40.6647 105.571 40.7065 105.743 40.7139 105.917C40.7212 106.092 40.6941 106.267 40.634 106.431C39.4585 109.643 38.4337 112.806 37.5866 115.832C37.5398 116.001 37.4601 116.158 37.3522 116.296C37.2443 116.434 37.1103 116.549 36.9578 116.635C36.8054 116.721 36.6374 116.776 36.4637 116.796C36.2899 116.817 36.1138 116.804 35.9453 116.756M42.7055 97.9909C42.3905 97.8311 42.1519 97.5529 42.0419 97.2174C41.9318 96.8818 41.9595 96.5163 42.1187 96.2011C43.649 93.1804 45.3722 90.2614 47.2776 87.4621C47.3754 87.316 47.5012 87.1907 47.6476 87.0935C47.794 86.9962 47.9583 86.9289 48.1309 86.8954C48.3034 86.862 48.4809 86.863 48.6531 86.8984C48.8253 86.9339 48.9888 87.0031 49.1341 87.102C49.2794 87.2009 49.4037 87.3276 49.4998 87.4748C49.5959 87.622 49.6619 87.7868 49.6941 87.9596C49.7262 88.1325 49.7238 88.3099 49.687 88.4818C49.6502 88.6537 49.5798 88.8167 49.4797 88.9612C47.6383 91.665 45.9733 94.4848 44.4951 97.4031C44.3355 97.7182 44.0574 97.957 43.7219 98.0672C43.3863 98.1774 43.0208 98.15 42.7055 97.9909ZM53.6137 81.3357C53.4822 81.2202 53.3749 81.08 53.2977 80.9231C53.2205 80.7661 53.1749 80.5955 53.1637 80.4209C53.1525 80.2464 53.1758 80.0713 53.2323 79.9058C53.2888 79.7403 53.3773 79.5875 53.4929 79.4562C55.727 76.9189 58.102 74.5093 60.6067 72.2389C60.7349 72.1148 60.8867 72.0177 61.0531 71.9534C61.2195 71.8891 61.3972 71.8589 61.5755 71.8645C61.7538 71.8702 61.9292 71.9116 62.0912 71.9864C62.2532 72.0611 62.3985 72.1677 62.5186 72.2996C62.6386 72.4316 62.7309 72.5864 62.79 72.7547C62.8491 72.9231 62.8738 73.1016 62.8626 73.2796C62.8513 73.4577 62.8045 73.6317 62.7247 73.7913C62.6449 73.9509 62.5339 74.0928 62.3983 74.2087C59.9675 76.4107 57.6625 78.7477 55.4943 81.2087C55.261 81.4739 54.932 81.6356 54.5795 81.6582C54.2271 81.6809 53.8801 81.5626 53.6148 81.3294M272.171 40.4767C269.428 39.8232 266.159 39.19 262.455 38.5925C262.107 38.5364 261.794 38.3441 261.587 38.0577C261.38 37.7714 261.296 37.4146 261.352 37.0658C261.408 36.717 261.6 36.4047 261.886 36.1977C262.173 35.9907 262.53 35.906 262.878 35.9621C266.646 36.5697 269.98 37.2159 272.788 37.8846C272.959 37.9251 273.119 37.9987 273.261 38.1013C273.403 38.2039 273.523 38.3334 273.614 38.4824C273.706 38.6314 273.768 38.797 273.795 38.9698C273.823 39.1425 273.816 39.3191 273.776 39.4893C273.735 39.6595 273.662 39.82 273.559 39.9617C273.457 40.1035 273.327 40.2236 273.178 40.3153C273.029 40.407 272.863 40.4685 272.691 40.4961C272.518 40.5238 272.341 40.5172 272.171 40.4767ZM68.1648 67.6948C68.0609 67.5541 67.9857 67.3943 67.9436 67.2246C67.9014 67.0549 67.8931 66.8785 67.9192 66.7055C67.9453 66.5326 68.0051 66.3665 68.0954 66.2167C68.1857 66.0669 68.3046 65.9364 68.4454 65.8326C71.082 63.8847 73.9038 61.9906 76.8335 60.2024C77.135 60.0184 77.4973 59.9616 77.8407 60.0447C78.1841 60.1278 78.4804 60.3439 78.6644 60.6454C78.8485 60.947 78.9052 61.3093 78.8221 61.6526C78.7391 61.996 78.523 62.2923 78.2214 62.4764C75.3598 64.2237 72.6025 66.0744 70.0281 67.9762C69.8875 68.0802 69.7277 68.1555 69.558 68.1978C69.3882 68.24 69.2118 68.2483 69.0388 68.2222C68.8659 68.1962 68.6997 68.1362 68.5499 68.0459C68.4002 67.9555 68.2697 67.8365 68.166 67.6956M252.61 37.2234C249.441 36.8437 246.111 36.4989 242.709 36.1974C242.356 36.1666 242.031 35.997 241.803 35.726C241.576 35.4549 241.465 35.1047 241.496 34.7522C241.527 34.3997 241.696 34.0738 241.967 33.8464C242.238 33.6189 242.589 33.5084 242.941 33.5392C246.37 33.844 249.728 34.192 252.923 34.574C253.245 34.6122 253.541 34.766 253.758 35.0069C253.974 35.2477 254.095 35.559 254.098 35.8827C254.102 36.2063 253.987 36.5201 253.776 36.7655C253.565 37.0108 253.272 37.1709 252.951 37.2158C252.837 37.2319 252.721 37.2333 252.607 37.2199M85.0618 57.0789C84.9822 56.923 84.9342 56.753 84.9203 56.5786C84.9065 56.4042 84.9271 56.2287 84.9811 56.0623C85.0351 55.8958 85.1213 55.7416 85.2349 55.6085C85.3485 55.4754 85.4871 55.366 85.643 55.2865C88.5537 53.802 91.6247 52.3656 94.7707 51.0176C94.932 50.9452 95.1061 50.9055 95.2828 50.901C95.4596 50.8966 95.6354 50.9273 95.8002 50.9915C95.9649 51.0556 96.1153 51.152 96.2424 51.2748C96.3695 51.3977 96.4709 51.5447 96.5407 51.7071C96.6104 51.8696 96.6471 52.0443 96.6487 52.2211C96.6502 52.3979 96.6165 52.5732 96.5496 52.7369C96.4827 52.9005 96.3838 53.0492 96.2588 53.1742C96.1338 53.2993 95.9852 53.3982 95.8216 53.4652C92.7291 54.7915 89.7121 56.2021 86.8541 57.6601C86.6983 57.7398 86.5283 57.788 86.3539 57.8019C86.1794 57.8158 86.0039 57.7952 85.8374 57.7412C85.671 57.6872 85.5168 57.6009 85.3837 57.4873C85.2506 57.3736 85.1412 57.2348 85.0618 57.0789ZM232.774 35.4508C229.502 35.2472 226.158 35.0799 222.825 34.9546C222.649 34.9501 222.476 34.9107 222.315 34.8386C222.154 34.7666 222.009 34.6633 221.888 34.5347C221.767 34.4062 221.673 34.255 221.611 34.0898C221.55 33.9247 221.521 33.7489 221.528 33.5727C221.535 33.3965 221.576 33.2234 221.65 33.0634C221.724 32.9034 221.829 32.7597 221.959 32.6406C222.09 32.5215 222.242 32.4294 222.408 32.3697C222.574 32.31 222.75 32.2838 222.926 32.2927C226.276 32.4196 229.645 32.5874 232.94 32.7919C233.27 32.8111 233.581 32.9526 233.813 33.1888C234.045 33.4249 234.18 33.7389 234.193 34.0695C234.206 34.4001 234.096 34.7237 233.883 34.9772C233.671 35.2308 233.371 35.3962 233.044 35.4412C232.954 35.4532 232.864 35.4564 232.774 35.4508ZM212.867 34.6961C209.554 34.6496 206.202 34.641 202.904 34.6713C202.554 34.6692 202.219 34.5296 201.972 34.2826C201.724 34.0356 201.583 33.7011 201.58 33.3513C201.577 33.0015 201.712 32.6645 201.955 32.4131C202.198 32.1617 202.53 32.0161 202.88 32.0077C206.198 31.9766 209.571 31.9853 212.905 32.0327C213.08 32.0352 213.253 32.0721 213.414 32.1413C213.574 32.2106 213.72 32.3107 213.842 32.4362C213.964 32.5616 214.06 32.7099 214.124 32.8724C214.189 33.035 214.221 33.2087 214.219 33.3836C214.216 33.5585 214.179 33.7313 214.11 33.8919C214.041 34.0526 213.941 34.1981 213.815 34.32C213.69 34.442 213.541 34.538 213.379 34.6027C213.216 34.6674 213.043 34.6994 212.868 34.6969M103.338 49.031C103.278 48.8666 103.252 48.692 103.26 48.5174C103.268 48.3427 103.31 48.1713 103.384 48.0129C103.458 47.8546 103.563 47.7125 103.692 47.5946C103.821 47.4768 103.973 47.3856 104.137 47.3262C107.212 46.2144 110.422 45.1473 113.681 44.152C114.012 44.0711 114.361 44.1197 114.656 44.2879C114.952 44.4561 115.172 44.731 115.272 45.0564C115.371 45.3817 115.342 45.7328 115.191 46.0376C115.04 46.3424 114.778 46.5778 114.459 46.6955C111.242 47.6768 108.074 48.7309 105.043 49.8264C104.878 49.8862 104.704 49.9129 104.529 49.905C104.354 49.8971 104.183 49.8548 104.024 49.7804C103.866 49.706 103.724 49.6011 103.606 49.4716C103.488 49.3421 103.397 49.1907 103.338 49.0259M192.941 34.8769C189.616 34.9878 186.268 35.1401 182.991 35.3301C182.64 35.3479 182.296 35.2261 182.034 34.9913C181.772 34.7565 181.614 34.4277 181.594 34.0766C181.573 33.7255 181.693 33.3807 181.926 33.1173C182.159 32.8539 182.486 32.6933 182.837 32.6706C186.137 32.4785 189.506 32.3261 192.853 32.2142C193.028 32.2084 193.202 32.2371 193.366 32.2986C193.53 32.3602 193.68 32.4533 193.808 32.5729C193.935 32.6924 194.038 32.8359 194.111 32.9952C194.183 33.1545 194.223 33.3265 194.229 33.5013C194.235 33.6761 194.206 33.8504 194.144 34.0141C194.083 34.1779 193.99 34.3279 193.87 34.4556C193.751 34.5833 193.607 34.6863 193.448 34.7585C193.289 34.8308 193.116 34.8711 192.941 34.8769ZM122.394 43.0568C122.35 42.8873 122.34 42.711 122.365 42.5377C122.39 42.3645 122.448 42.1979 122.538 42.0473C122.627 41.8968 122.745 41.7652 122.885 41.6602C123.025 41.5553 123.184 41.4789 123.353 41.4355C126.522 40.6216 129.812 39.8491 133.129 39.1386C133.301 39.0995 133.479 39.0949 133.653 39.1251C133.826 39.1553 133.992 39.2197 134.141 39.3146C134.29 39.4095 134.418 39.5329 134.518 39.6778C134.619 39.8226 134.69 39.986 134.727 40.1584C134.764 40.3309 134.766 40.5089 134.734 40.6823C134.701 40.8556 134.635 41.0208 134.538 41.1682C134.441 41.3157 134.316 41.4424 134.17 41.5411C134.024 41.6399 133.86 41.7086 133.687 41.7433C130.402 42.4474 127.146 43.2119 124.008 44.0124C123.96 44.0248 123.911 44.0348 123.861 44.0422C123.537 44.0871 123.207 44.0112 122.936 43.8289C122.664 43.6466 122.469 43.3707 122.387 43.0537M173.051 36.0343C169.725 36.3149 166.391 36.6421 163.144 37.0075C162.793 37.0471 162.441 36.9456 162.165 36.7253C161.888 36.5051 161.711 36.1841 161.672 35.8331C161.632 35.482 161.733 35.1297 161.954 34.8534C162.174 34.5772 162.495 34.3999 162.846 34.3603C166.118 33.9924 169.475 33.6619 172.827 33.3797C173.17 33.3544 173.51 33.4631 173.775 33.683C174.04 33.9029 174.209 34.2168 174.248 34.559C174.287 34.9012 174.191 35.245 173.982 35.5183C173.772 35.7916 173.465 35.9732 173.125 36.025L173.05 36.0354M141.902 38.7569C141.873 38.584 141.877 38.4069 141.917 38.2358C141.956 38.0648 142.028 37.9032 142.13 37.7603C142.232 37.6174 142.361 37.4961 142.51 37.4033C142.659 37.3104 142.825 37.248 142.998 37.2195C146.227 36.6485 149.561 36.1163 152.908 35.6368C153.253 35.598 153.599 35.6952 153.873 35.9077C154.147 36.1203 154.328 36.4315 154.376 36.7751C154.424 37.1186 154.337 37.4675 154.132 37.7474C153.927 38.0273 153.621 38.2162 153.279 38.2739C149.96 38.7493 146.654 39.2777 143.452 39.8427L143.405 39.8494C143.063 39.8971 142.716 39.8104 142.437 39.6076C142.158 39.4048 141.969 39.1017 141.909 38.762" fill="white"/>
</g>
<mask id="mask1_2263_17" style="mask-type:luminance" maskUnits="userSpaceOnUse" x="263" y="0" width="101" height="104">
<path d="M363.421 72.8869L330.965 0L263.253 30.1518L295.709 103.039L363.421 72.8869Z" fill="white"/>
</mask>
<g mask="url(#mask1_2263_17)">
<path d="M363.002 71.9455L291.572 17.5417C291.493 19.6576 291.346 20.8335 291.417 21.999C291.949 30.7957 292.634 39.5845 292.99 48.3881C292.983 50.2657 292.376 52.0919 291.259 53.6012C288.373 57.4503 285.111 61.0102 282.038 64.717C281.35 65.547 280.831 66.5172 280.003 67.7719L290.976 71.0166L289.459 86.7078L362.699 73.2085L363.002 71.9455ZM291.892 84.0442L295.244 52.5276L355.971 71.6932L355.943 72.2446C334.77 76.1453 313.599 80.0447 291.892 84.0442ZM354.519 68.2753L354.23 68.7752C350.45 67.5852 346.671 66.3949 342.893 65.2043C328.093 60.5499 313.29 55.9071 298.481 51.2759C296.271 50.592 295.073 49.7202 295.119 47.1061C295.188 43.3244 294.735 39.5369 294.501 35.7521C294.229 31.3326 293.953 26.9134 293.641 21.8906L354.52 68.2717M291.94 56.3154L292.551 56.555L291.23 68.7087L283.526 66.4672L291.94 56.3154Z" fill="white"/>
</g>
</svg>
