<svg width="57" height="57" viewBox="0 0 57 57" fill="none" xmlns="http://www.w3.org/2000/svg">
<path d="M46 0H11C4.92487 0 0 4.92487 0 11V46C0 52.0751 4.92487 57 11 57H46C52.0751 57 57 52.0751 57 46V11C57 4.92487 52.0751 0 46 0Z" fill="#0086D5"/>
<mask id="mask0_2218_8" style="mask-type:luminance" maskUnits="userSpaceOnUse" x="8" y="8" width="41" height="41">
<path d="M48.674 8.81995H8.32501V48.1799H48.674V8.81995Z" fill="white"/>
</mask>
<g mask="url(#mask0_2218_8)">
<mask id="mask1_2218_8" style="mask-type:luminance" maskUnits="userSpaceOnUse" x="8" y="8" width="41" height="41">
<path d="M48.674 8.81995H8.32501V48.1799H48.674V8.81995Z" fill="white"/>
</mask>
<g mask="url(#mask1_2218_8)">
<path d="M8.61401 28.5009C8.68043 23.2926 10.8126 18.3239 14.5418 14.6874C18.2709 11.0509 23.2917 9.04434 28.5 9.10893C33.7083 9.04434 38.7291 11.0509 42.4582 14.6874C46.1874 18.3239 48.3196 23.2926 48.386 28.5009C48.3193 33.7091 46.187 38.6775 42.4579 42.3138C38.7288 45.9501 33.7082 47.9565 28.5 47.8919C23.2919 47.9565 18.2713 45.9501 14.5421 42.3138C10.813 38.6775 8.6807 33.7091 8.61401 28.5009Z" fill="white"/>
<path d="M28.5 48.18C23.2169 48.239 18.126 46.2003 14.3439 42.511C10.5618 38.8217 8.39723 33.783 8.32501 28.5C8.39723 23.217 10.5618 18.1783 14.3439 14.489C18.126 10.7997 23.2169 8.76096 28.5 8.81997C33.7829 8.76149 38.8734 10.8004 42.6552 14.4896C46.4371 18.1788 48.6015 23.2172 48.674 28.5C48.6018 33.7828 46.4374 38.8213 42.6555 42.5106C38.8736 46.1999 33.783 48.2387 28.5 48.18ZM28.5 9.39697C23.37 9.33741 18.4258 11.3147 14.7516 14.8952C11.0774 18.4757 8.97301 23.3672 8.90001 28.497C8.97301 33.6268 11.0774 38.5182 14.7516 42.0988C18.4258 45.6793 23.37 47.6565 28.5 47.597C33.63 47.6565 38.5742 45.6793 42.2484 42.0988C45.9227 38.5182 48.027 33.6268 48.1 28.497C48.027 23.3672 45.9227 18.4757 42.2484 14.8952C38.5742 11.3147 33.63 9.33741 28.5 9.39697Z" fill="black"/>
<path d="M11.085 28.5C11.1215 24.0026 12.9426 19.7037 16.148 16.5488C19.3534 13.3938 23.6806 11.6411 28.178 11.676C30.4055 11.6578 32.6148 12.0785 34.6797 12.9142C36.7446 13.7498 38.6246 14.984 40.2125 16.5463C41.8004 18.1086 43.065 19.9683 43.9342 22.0193C44.8033 24.0703 45.26 26.2725 45.278 28.5C45.2598 30.7274 44.8031 32.9294 43.9339 34.9803C43.0647 37.0312 41.8001 38.8909 40.2122 40.453C38.6243 42.0152 36.7443 43.2493 34.6794 44.0849C32.6146 44.9205 30.4054 45.3412 28.178 45.323C25.9505 45.3412 23.7412 44.9204 21.6763 44.0848C19.6114 43.2491 17.7314 42.0149 16.1435 40.4527C14.5556 38.8904 13.291 37.0307 12.4218 34.9796C11.5527 32.9286 11.0961 30.7265 11.078 28.499" fill="white"/>
<path d="M28.183 45.612C23.6099 45.6429 19.2112 43.8587 15.9519 40.6507C12.6926 37.4428 10.8387 33.073 10.797 28.5C10.8662 23.9346 12.7284 19.5797 15.9814 16.3757C19.2344 13.1717 23.6171 11.3757 28.183 11.3757C32.7489 11.3757 37.1316 13.1717 40.3846 16.3757C43.6376 19.5797 45.4997 23.9346 45.569 28.5C45.5273 33.073 43.6734 37.4428 40.4141 40.6507C37.1548 43.8587 32.7561 45.6429 28.183 45.612ZM28.183 11.965C23.7628 11.9338 19.5108 13.6572 16.3596 16.757C13.2084 19.8568 11.4155 24.0799 11.374 28.5C11.4421 32.9131 13.243 37.1225 16.3879 40.2192C19.5328 43.316 23.7694 45.0517 28.183 45.0517C32.5966 45.0517 36.8332 43.316 39.9781 40.2192C43.123 37.1225 44.9239 32.9131 44.992 28.5C44.9503 24.08 43.1572 19.857 40.0061 16.7573C36.855 13.6575 32.6031 11.9341 28.183 11.965Z" fill="black"/>
<path d="M28.183 28.7879C28.1282 28.7879 28.0746 28.7723 28.0283 28.7429C27.9821 28.7135 27.9452 28.6716 27.922 28.6219L22.28 16.6079C22.2524 16.5395 22.252 16.4631 22.279 16.3944C22.3059 16.3257 22.3581 16.2699 22.4248 16.2384C22.4916 16.2069 22.5679 16.2022 22.638 16.2252C22.7081 16.2481 22.7668 16.2971 22.802 16.3619L28.441 28.3769C28.4618 28.4209 28.4711 28.4693 28.468 28.5178C28.465 28.5663 28.4498 28.6133 28.4237 28.6543C28.3977 28.6953 28.3617 28.7291 28.3191 28.7525C28.2764 28.7758 28.2286 28.788 28.18 28.7879" fill="black"/>
<path d="M27.097 28.869L34.753 33.51L33.618 35.495L39.158 34.637L36.883 29.827L35.789 31.361L27.955 27.208L27.097 28.869Z" fill="white"/>
<path d="M33.617 35.784C33.5664 35.7841 33.5167 35.7709 33.4728 35.7456C33.4289 35.7204 33.3925 35.684 33.3672 35.6402C33.3418 35.5964 33.3284 35.5467 33.3284 35.4961C33.3284 35.4455 33.3417 35.3958 33.367 35.352L34.367 33.611L26.952 29.111C26.8894 29.0732 26.8435 29.013 26.8236 28.9426C26.8037 28.8722 26.8114 28.7969 26.845 28.732L27.705 27.071C27.7225 27.0371 27.7465 27.0071 27.7757 26.9826C27.8049 26.9582 27.8387 26.9397 27.875 26.9284C27.9114 26.917 27.9497 26.913 27.9876 26.9165C28.0255 26.9201 28.0624 26.9311 28.096 26.949L35.707 30.983L36.655 29.655C36.6839 29.6128 36.7234 29.5791 36.7696 29.5573C36.8158 29.5355 36.867 29.5264 36.9179 29.5308C36.9688 29.5353 37.0175 29.5532 37.0592 29.5828C37.1009 29.6123 37.1339 29.6524 37.155 29.699L39.427 34.508C39.4462 34.5486 39.4557 34.5931 39.4546 34.638C39.4536 34.6828 39.4421 34.7269 39.421 34.7665C39.3999 34.8061 39.3699 34.8403 39.3332 34.8662C39.2966 34.8922 39.2544 34.9092 39.21 34.916L33.67 35.775C33.6554 35.776 33.6407 35.776 33.626 35.775M27.486 28.754L34.911 33.254C34.9753 33.293 35.0218 33.3557 35.0405 33.4286C35.0592 33.5015 35.0486 33.5788 35.011 33.644L34.173 35.109L38.739 34.401L36.839 30.386L36.03 31.519C35.9894 31.5759 35.9295 31.6162 35.8614 31.6322C35.7933 31.6482 35.7217 31.6389 35.66 31.606L28.079 27.605L27.486 28.754Z" fill="black"/>
<path d="M28.428 26.713C28.064 26.7535 27.7209 26.9037 27.4442 27.1438C27.1676 27.3838 26.9705 27.7023 26.879 28.057C26.7953 28.4164 26.8275 28.7932 26.9712 29.1332C27.1148 29.4732 27.3624 29.7589 27.6785 29.9495C27.9946 30.14 28.3629 30.2256 28.7307 30.1938C29.0984 30.1621 29.4466 30.0147 29.7254 29.7728C30.0042 29.531 30.1992 29.207 30.2824 28.8474C30.3657 28.4879 30.3329 28.1112 30.1889 27.7714C30.0448 27.4316 29.7968 27.1461 29.4805 26.956C29.1641 26.7658 28.7957 26.6808 28.428 26.713Z" fill="white"/>
<path d="M28.55 30.504C28.4708 30.5042 28.3916 30.4992 28.313 30.489C28.0345 30.4409 27.7685 30.3376 27.5307 30.185C27.2928 30.0325 27.0879 29.8339 26.9281 29.6008C26.7682 29.3678 26.6566 29.1052 26.6 28.8283C26.5433 28.5515 26.5426 28.2661 26.598 27.989C26.7039 27.5764 26.9328 27.2057 27.2543 26.9262C27.5757 26.6466 27.9746 26.4715 28.398 26.424C28.6784 26.405 28.9597 26.4453 29.2235 26.5423C29.4873 26.6393 29.7277 26.7909 29.929 26.987C30.144 27.1799 30.3159 27.416 30.4336 27.6798C30.5512 27.9436 30.612 28.2292 30.612 28.518C30.5997 28.8007 30.5281 29.0777 30.4018 29.331C30.2756 29.5842 30.0974 29.8081 29.879 29.988C29.5098 30.3121 29.0372 30.494 28.546 30.501M28.446 27.001C28.1449 27.0397 27.8622 27.1672 27.6339 27.3672C27.4056 27.5672 27.242 27.8307 27.164 28.124C27.0846 28.423 27.1041 28.7396 27.2196 29.0266C27.3351 29.3136 27.5403 29.5555 27.8046 29.7162C28.069 29.8769 28.3782 29.9477 28.6861 29.9181C28.994 29.8885 29.2841 29.7601 29.513 29.552C29.6696 29.4246 29.7976 29.2658 29.8889 29.0858C29.9802 28.9058 30.0327 28.7086 30.043 28.507C30.0405 28.299 29.9947 28.0938 29.9087 27.9044C29.8226 27.7151 29.6981 27.5457 29.543 27.407C29.4013 27.2663 29.2315 27.1571 29.0447 27.0865C28.8579 27.0158 28.6584 26.9853 28.459 26.997" fill="black"/>
<path d="M12.688 29.884C12.6127 29.8867 12.5392 29.8597 12.4835 29.8089C12.4278 29.7581 12.3943 29.6874 12.3901 29.6122C12.3859 29.5369 12.4114 29.4629 12.4611 29.4062C12.5109 29.3496 12.5808 29.3146 12.656 29.309C13.483 29.2154 14.3175 29.208 15.146 29.287C15.1837 29.2906 15.2203 29.3016 15.2538 29.3193C15.2872 29.3371 15.3168 29.3613 15.3409 29.3905C15.365 29.4197 15.3831 29.4533 15.3942 29.4895C15.4053 29.5257 15.4091 29.5638 15.4055 29.6015C15.4019 29.6392 15.3909 29.6758 15.3732 29.7092C15.3554 29.7426 15.3312 29.7723 15.302 29.7963C15.2728 29.8204 15.2391 29.8386 15.2029 29.8496C15.1667 29.8607 15.1287 29.8646 15.091 29.861C14.3028 29.7861 13.5088 29.7931 12.722 29.882H12.689" fill="black"/>
<path d="M28.076 43.346C27.9995 43.3452 27.9265 43.3142 27.8729 43.2596C27.8193 43.2051 27.7895 43.1315 27.79 43.055L27.81 40.691C27.8105 40.6148 27.8413 40.5419 27.8954 40.4883C27.9496 40.4347 28.0228 40.4048 28.099 40.405C28.1755 40.4058 28.2485 40.4369 28.3021 40.4914C28.3557 40.546 28.3856 40.6196 28.385 40.696L28.365 43.06C28.3645 43.1362 28.3338 43.2091 28.2796 43.2627C28.2254 43.3163 28.1522 43.3463 28.076 43.346Z" fill="black"/>
<path d="M28.066 15.842C27.9895 15.8412 27.9165 15.8101 27.8629 15.7556C27.8093 15.701 27.7795 15.6275 27.78 15.551L27.8 13.187C27.8008 13.1109 27.8316 13.0381 27.8857 12.9846C27.9398 12.931 28.0129 12.901 28.089 12.901C28.1655 12.9018 28.2385 12.9329 28.2921 12.9874C28.3457 13.042 28.3755 13.1155 28.375 13.192L28.355 15.556C28.3545 15.6322 28.3238 15.7051 28.2696 15.7587C28.2154 15.8123 28.1422 15.8423 28.066 15.842Z" fill="black"/>
<path d="M43.366 28.366C43.3487 28.3674 43.3313 28.3674 43.314 28.366C42.7482 28.2626 42.1715 28.2323 41.598 28.276C41.5247 28.2766 41.454 28.2494 41.4 28.1999C41.346 28.1503 41.3129 28.0821 41.3073 28.009C41.3017 27.936 41.3241 27.8635 41.3699 27.8063C41.4157 27.7491 41.4815 27.7115 41.554 27.701C42.1771 27.6544 42.8035 27.688 43.418 27.801C43.4876 27.8153 43.5494 27.8547 43.5918 27.9118C43.6341 27.9688 43.654 28.0395 43.6476 28.1102C43.6411 28.181 43.6089 28.2469 43.5569 28.2953C43.505 28.3438 43.437 28.3714 43.366 28.373" fill="black"/>
<g opacity="0.129">
<mask id="mask2_2218_8" style="mask-type:luminance" maskUnits="userSpaceOnUse" x="29" y="28" width="3" height="3">
<path d="M31.378 28.704H29.53V30.54H31.378V28.704Z" fill="white"/>
</mask>
<g mask="url(#mask2_2218_8)">
<path d="M30.768 28.719C30.6717 28.7468 30.5863 28.8036 30.5233 28.8816C30.4604 28.9596 30.4229 29.055 30.416 29.155L30.392 29.182C30.184 29.435 29.992 29.436 29.637 29.766C29.5709 29.8541 29.5371 29.9624 29.5413 30.0725C29.5456 30.1826 29.5876 30.288 29.6603 30.3708C29.733 30.4536 29.832 30.5088 29.9407 30.5273C30.0493 30.5457 30.161 30.5262 30.257 30.472C30.6639 30.261 31.0154 29.9571 31.283 29.585C31.517 29.17 31.302 28.606 30.766 28.72" fill="black"/>
</g>
</g>
<g opacity="0.129">
<mask id="mask3_2218_8" style="mask-type:luminance" maskUnits="userSpaceOnUse" x="28" y="11" width="1" height="1">
<path d="M28.165 11.6479H28.147V11.6519H28.165V11.6479Z" fill="white"/>
</mask>
<g mask="url(#mask3_2218_8)">
<path d="M28.16 11.6519H28.166C28.148 11.6519 28.139 11.6449 28.16 11.6519Z" fill="black"/>
</g>
</g>
<g opacity="0.129">
<mask id="mask4_2218_8" style="mask-type:luminance" maskUnits="userSpaceOnUse" x="11" y="11" width="26" height="30">
<path d="M36.819 11.606H11.297V40.548H36.819V11.606Z" fill="white"/>
</mask>
<g mask="url(#mask4_2218_8)">
<path d="M36.709 13.847C36.3223 13.655 35.9297 13.4767 35.531 13.312C34.7259 12.9823 33.9005 12.7044 33.06 12.48C33.0025 12.4672 32.9516 12.434 32.9167 12.3866C32.8818 12.3392 32.8652 12.2807 32.87 12.222C32.594 12.16 32.315 12.11 32.032 12.073C30.9611 11.8703 29.8715 11.7828 28.782 11.812C28.7181 11.7508 28.6366 11.7113 28.549 11.699C28.501 11.691 28.234 11.655 28.165 11.647L28.201 11.655C28.046 11.632 27.888 11.626 27.732 11.615C27.4179 11.594 27.1026 11.597 26.789 11.624C26.0086 11.7096 25.2368 11.8611 24.482 12.077C23.2967 12.3814 22.1368 12.7776 21.013 13.262C19.8516 13.6989 18.7599 14.3022 17.772 15.053C16.888 15.8108 16.0974 16.6712 15.417 17.616C15.3295 17.5674 15.2266 17.5548 15.13 17.581C14.843 17.717 14.956 17.714 14.73 17.981C14.493 18.322 14.283 18.681 14.075 19.04C13.7906 19.4713 13.5453 19.9271 13.342 20.402C13.2761 20.5128 13.248 20.6419 13.262 20.77C13.0662 21.0789 12.8915 21.4006 12.739 21.733C11.6892 24.0626 11.1975 26.605 11.303 29.158C11.3849 30.257 11.5376 31.3496 11.76 32.429C12.0434 33.6002 12.4455 34.7394 12.96 35.829C12.9922 35.8856 13.037 35.934 13.0909 35.9704C13.1449 36.0068 13.2065 36.0303 13.271 36.039C13.544 36.682 13.899 37.577 14.3 38.345C14.6157 39.0018 15.0419 39.5996 15.56 40.112C15.6989 40.2626 15.8546 40.3968 16.024 40.512C16.1073 40.5484 16.2011 40.553 16.2876 40.5248C16.3741 40.4966 16.4472 40.4376 16.493 40.359C16.682 40.034 16.318 39.802 16.125 39.592C16.001 39.4644 15.8867 39.3277 15.783 39.183C15.4766 38.7495 15.2105 38.2889 14.988 37.807C14.701 37.271 14.421 36.73 14.177 36.172C14.027 35.785 13.745 35.199 13.444 34.582C13.1155 33.5527 12.8605 32.5014 12.681 31.436C12.1302 28.647 12.3801 25.7589 13.402 23.106C14.1335 21.6624 15.0269 20.3066 16.065 19.065C16.9315 18.1405 17.8561 17.272 18.833 16.465C19.6945 15.6586 20.6625 14.9742 21.71 14.431C22.5754 14.0403 23.4641 13.7034 24.371 13.422C26.1267 13.0287 27.918 12.8156 29.717 12.786C30.508 12.858 31.164 12.992 32.108 13.144C33.5573 13.3529 34.9805 13.7143 36.354 14.222C36.4053 14.2418 36.4607 14.2489 36.5153 14.2428C36.57 14.2366 36.6224 14.2173 36.668 14.1866C36.7137 14.1559 36.7512 14.1146 36.7775 14.0663C36.8038 14.018 36.818 13.964 36.819 13.909C36.782 13.89 36.746 13.87 36.71 13.851" fill="black"/>
</g>
</g>
<g opacity="0.129">
<mask id="mask5_2218_8" style="mask-type:luminance" maskUnits="userSpaceOnUse" x="19" y="21" width="30" height="27">
<path d="M48.402 21.916H19.722V47.848H48.402V21.916Z" fill="white"/>
</mask>
<g mask="url(#mask5_2218_8)">
<path d="M47.316 21.916C47.2436 21.9148 47.1721 21.9326 47.1087 21.9677C47.0454 22.0028 46.9924 22.054 46.955 22.116C46.9034 22.2117 46.8871 22.3225 46.909 22.429C46.909 22.505 46.93 22.699 46.938 22.757C46.958 22.842 47.038 23.621 47.094 24.082C47.7411 27.6535 47.3069 31.3369 45.847 34.66C45.4088 35.9001 44.8526 37.0953 44.186 38.229C44.163 38.261 44.14 38.293 44.118 38.329C44.252 38.152 44.175 38.254 44.093 38.363C43.757 38.772 43.401 39.163 43.045 39.557C41.7364 40.9741 40.307 42.2747 38.773 43.444C38.0752 44.0103 37.3129 44.4919 36.502 44.879C36.256 44.979 36.556 44.856 36.221 44.988C35.396 45.247 34.593 45.572 33.763 45.81C32.6237 46.1287 31.4737 46.4067 30.313 46.644C29.466 46.789 28.6092 46.8703 27.75 46.887C26.5537 46.9901 25.3492 46.9417 24.165 46.743C23.1383 46.5282 22.1265 46.2472 21.136 45.902C20.831 45.793 20.523 45.692 20.215 45.589C20.1644 45.573 20.111 45.5673 20.0581 45.5724C20.0053 45.5774 19.9539 45.5931 19.9073 45.6185C19.8606 45.6438 19.8195 45.6783 19.7864 45.7199C19.7534 45.7615 19.7291 45.8093 19.7149 45.8605C19.7008 45.9117 19.6972 45.9653 19.7042 46.0179C19.7112 46.0706 19.7288 46.1213 19.7559 46.167C19.783 46.2127 19.819 46.2524 19.8618 46.2839C19.9046 46.3153 19.9533 46.3378 20.005 46.35C21.399 46.874 22.8278 47.3004 24.281 47.626C24.947 47.71 25.615 47.802 26.281 47.844C27.013 47.857 27.744 47.804 28.474 47.765C29.622 47.7702 30.7661 47.6301 31.879 47.348C32.8174 47.1591 33.7448 46.9191 34.657 46.629C35.31 46.377 35.997 46.229 36.662 46.022C37.1369 45.8526 37.5973 45.6453 38.039 45.402C39.606 44.4254 41.0575 43.2748 42.366 41.972C43.223 41.242 44.0085 40.432 44.712 39.553C45.4429 38.5118 46.0192 37.3703 46.423 36.164C47.0077 34.9967 47.4882 33.7799 47.859 32.528C48.3975 30.2289 48.5355 27.8541 48.267 25.508C47.8464 24.3397 47.5259 23.1377 47.309 21.915" fill="black"/>
</g>
</g>
</g>
</g>
</svg>
